<svg width="1200" height="1200" viewBox="0 0 1200 1200" fill="none" xmlns="http://www.w3.org/2000/svg">
<rect width="1200" height="1200" fill="#3A57FC"/>
<rect width="1200" height="1200" fill="#3A57FC"/>
<path d="M787.367 285.589H665.833V407.123H787.367V285.589Z" fill="#FF8B00"/>
<path d="M908.877 407.123H787.342V903.342H908.877V407.123Z" fill="#FF8B00"/>
<path d="M665.833 285.589H348.854V407.123H665.833V285.589Z" fill="white"/>
<path d="M665.833 407.123L665.833 533.711H489.631C363.018 533.711 291.123 601.548 291.123 723.082C291.123 844.616 363.018 913.474 489.606 913.474H498.717C568.596 913.474 623.289 888.156 665.808 846.633V903.342H787.342V407.123H665.808L665.833 407.123ZM538.225 802.072C473.4 802.072 444.049 776.754 444.049 723.082C444.049 669.41 473.425 646.109 538.225 645.113H665.833C665.833 733.214 625.33 797.018 538.225 802.072Z" fill="white"/>
</svg>
